<?xml version="1.0" standalone="no"?>
<!DOCTYPE svg PUBLIC "-//W3C//DTD SVG 20010904//EN"
 "http://www.w3.org/TR/2001/REC-SVG-20010904/DTD/svg10.dtd">
<svg version="1.0" xmlns="http://www.w3.org/2000/svg"
 width="265.000000pt" height="265.000000pt" viewBox="0 0 265.000000 265.000000"
 preserveAspectRatio="xMidYMid meet">
<metadata>
Created by potrace 1.14, written by Peter Selinger 2001-2017
</metadata>
<g transform="translate(0.000000,265.000000) scale(0.100000,-0.100000)"
fill="#000000" stroke="none">
<path d="M1670 1330 l0 -790 110 0 110 0 0 185 0 185 43 1 c133 2 223 37 299
115 81 82 146 247 163 409 3 33 8 76 11 95 6 41 6 394 0 430 -3 14 -7 45 -11
70 -12 96 35 85 -368 88 l-357 2 0 -790z m408 734 c73 -48 103 -132 107 -306
4 -201 -31 -310 -117 -354 -36 -19 -50 -22 -119 -25 l-54 -3 -3 351 c-3 401
-13 361 96 357 40 -1 73 -9 90 -20z"/>
<path d="M338 2052 c-16 -3 -18 -20 -18 -177 l0 -173 27 -5 c15 -3 50 -4 79
-3 61 1 98 29 113 83 28 100 -27 181 -116 171 l-33 -4 0 57 c0 61 -1 62 -52
51z m124 -179 c21 -24 16 -93 -8 -110 -10 -7 -28 -13 -41 -13 -22 0 -23 4 -23
63 0 35 3 67 7 70 12 13 50 7 65 -10z"/>
<path d="M610 2050 c-4 -3 -7 -76 -6 -162 1 -173 4 -182 64 -194 23 -5 32 -3
33 7 1 8 2 21 3 29 0 8 -7 21 -16 28 -16 11 -18 32 -18 157 l0 143 -26 -2
c-14 0 -29 -3 -34 -6z"/>
<path d="M799 1939 c-32 -12 -69 -76 -69 -119 0 -134 171 -179 225 -59 50 111
-44 219 -156 178z m83 -66 c10 -9 18 -30 18 -48 0 -78 -82 -103 -96 -30 -13
73 32 120 78 78z"/>
<path d="M1064 1931 c-36 -22 -57 -71 -51 -122 8 -70 48 -105 111 -97 39 4 48
-10 21 -32 -10 -8 -32 -11 -64 -7 -46 5 -49 4 -54 -19 -2 -13 0 -27 6 -31 19
-11 120 -12 141 -1 48 26 51 35 54 178 4 155 10 145 -83 148 -35 2 -59 -3 -81
-17z m97 -53 c3 -22 -1 -82 -6 -95 -7 -21 -53 -15 -66 8 -13 25 -4 85 14 92
24 10 57 7 58 -5z"/>
<path d="M593 1503 c-23 -4 -23 -6 -23 -179 0 -158 2 -174 18 -176 98 -8 133
-5 158 15 31 24 53 72 49 107 -1 14 -3 36 -4 48 0 13 -15 37 -33 54 -27 25
-38 29 -75 26 -39 -3 -44 -1 -42 17 1 11 1 37 0 58 -1 38 -3 39 -48 30z m121
-185 c34 -48 6 -118 -47 -118 -22 0 -24 4 -25 62 0 34 2 66 4 70 10 16 53 7
68 -14z"/>
<path d="M1410 1452 c-13 -5 -13 -232 -1 -265 12 -31 61 -51 107 -44 45 8 46
9 39 38 -5 20 -12 24 -43 24 l-37 0 -3 63 -3 62 41 0 c38 0 40 2 40 30 0 28
-2 30 -40 30 -39 0 -40 1 -40 34 0 30 -3 34 -25 32 -14 0 -29 -2 -35 -4z"/>
<path d="M334 1385 c-2 -5 -2 -19 0 -30 3 -17 9 -19 45 -17 38 4 71 -9 71 -28
0 -4 -23 -10 -51 -12 -62 -6 -92 -32 -91 -79 1 -52 32 -74 105 -76 102 -2 104
0 101 105 -2 100 -13 128 -51 143 -32 12 -124 8 -129 -6z m116 -160 c0 -21 -5
-25 -29 -25 -35 0 -56 21 -39 38 7 7 25 12 40 12 23 0 28 -4 28 -25z"/>
<path d="M920 1392 c-64 -30 -92 -94 -71 -164 20 -66 74 -98 141 -83 91 20
119 172 43 229 -27 20 -89 30 -113 18z m74 -74 c29 -42 9 -118 -31 -118 -29 0
-53 31 -53 68 0 64 53 95 84 50z"/>
<path d="M1130 1294 c0 -93 1 -96 31 -126 29 -30 32 -30 102 -25 40 4 73 7 75
7 1 0 2 54 2 120 l0 120 -35 0 -35 0 0 -95 c0 -92 -1 -95 -23 -95 -39 0 -47
18 -47 107 l0 83 -35 0 -35 0 0 -96z"/>
<path d="M339 952 c-15 -3 -16 -22 -15 -162 1 -175 4 -184 62 -196 28 -5 32
-3 37 22 4 21 0 32 -14 42 -17 12 -19 27 -19 157 0 155 2 148 -51 137z"/>
<path d="M474 952 c-33 -23 -15 -72 27 -72 25 0 45 46 28 66 -12 15 -38 18
-55 6z"/>
<path d="M654 950 c-44 -17 -51 -46 -51 -202 l-1 -148 34 0 34 0 0 90 0 90 40
0 c22 0 41 3 41 8 9 50 8 52 -37 52 -46 0 -51 7 -33 41 8 15 19 20 41 17 27
-3 33 1 39 24 5 19 3 28 -8 32 -21 8 -74 6 -99 -4z"/>
<path d="M849 839 c-32 -12 -69 -76 -69 -118 0 -96 72 -146 179 -125 25 5 31
11 31 33 0 25 -2 26 -52 25 -50 -2 -88 14 -88 38 0 4 36 8 80 8 l80 0 0 28 c0
39 -31 95 -60 109 -29 15 -64 15 -101 2z m81 -64 c18 -22 9 -27 -41 -23 -41 3
-42 4 -25 21 22 21 49 22 66 2z"/>
<path d="M462 720 l2 -120 33 0 33 0 0 120 0 120 -34 0 -35 0 1 -120z"/>
</g>
</svg>
